<svg width="38" height="54" viewBox="0 0 38 54" fill="none" xmlns="http://www.w3.org/2000/svg">
<path d="M14.25 23.75C15.5833 25 17.1667 25.625 19 25.625C20.8333 25.625 22.375 25 23.625 23.75C24.9583 22.4167 25.625 20.8333 25.625 19C25.625 17.1667 24.9583 15.625 23.625 14.375C22.375 13.0417 20.8333 12.375 19 12.375C17.1667 12.375 15.5833 13.0417 14.25 14.375C13 15.625 12.375 17.1667 12.375 19C12.375 20.8333 13 22.4167 14.25 23.75ZM5.75 5.875C9.41667 2.20833 13.8333 0.375 19 0.375C24.1667 0.375 28.5417 2.20833 32.125 5.875C35.7917 9.45833 37.625 13.8333 37.625 19C37.625 21.5833 36.9583 24.5417 35.625 27.875C34.375 31.2083 32.8333 34.3333 31 37.25C29.1667 40.1667 27.3333 42.9167 25.5 45.5C23.75 48 22.25 50 21 51.5L19 53.625C18.5 53.0417 17.8333 52.2917 17 51.375C16.1667 50.375 14.6667 48.4583 12.5 45.625C10.3333 42.7083 8.41667 39.9167 6.75 37.25C5.16667 34.5 3.70833 31.4167 2.375 28C1.04167 24.5833 0.375 21.5833 0.375 19C0.375 13.8333 2.16667 9.45833 5.75 5.875Z" fill="url(#paint0_linear_18_492)"/>
<defs>
<linearGradient id="paint0_linear_18_492" x1="14.0088" y1="53.625" x2="42.7786" y2="14.0238" gradientUnits="userSpaceOnUse">
<stop stop-color="#AC7C04"/>
<stop offset="0.5" stop-color="#EEBA00"/>
<stop offset="1" stop-color="#F5D64A"/>
</linearGradient>
</defs>
</svg>
